<svg version="1.1" id="Layer_1" xmlns="http://www.w3.org/2000/svg" xmlns:xlink="http://www.w3.org/1999/xlink" x="0px" y="0px"
	 width="100%" viewBox="0 0 1454 1078" enable-background="new 0 0 1454 1078" xml:space="preserve">
<path fill="#00A2E9" opacity="1.000000" stroke="none" 
	d="
M1133.000000,1079.000000 
	C1126.978882,1079.000000 1120.957642,1079.000000 1114.221313,1078.652588 
	C1105.151611,1077.513184 1096.687134,1077.317749 1088.466675,1075.799805 
	C1073.421631,1073.021484 1058.321533,1070.176270 1043.603027,1066.072876 
	C1016.333069,1058.470703 990.808899,1046.622437 966.486328,1032.119385 
	C941.481628,1017.209595 918.173950,1000.041382 897.383850,979.677246 
	C888.674438,971.146301 880.990356,961.556030 872.984741,952.321960 
	C858.357117,935.449707 846.282104,916.767700 835.202271,897.473328 
	C821.302490,873.268494 809.163879,848.156372 800.012756,821.761414 
	C791.967224,798.555115 784.095520,775.251099 777.322632,751.652893 
	C772.024536,733.193054 768.260071,714.272400 764.317810,695.450989 
	C761.467651,681.843567 759.220581,668.097168 757.120483,654.349243 
	C755.388123,643.008789 754.259338,631.575806 752.875000,620.182373 
	C751.590393,609.610046 750.091553,599.057129 749.110352,588.456421 
	C748.122131,577.779602 747.613831,567.057068 746.969421,556.350098 
	C745.947205,539.363953 744.262512,522.378723 744.155396,505.384918 
	C743.952026,473.121613 744.652222,440.852325 745.006409,408.585846 
	C745.181274,392.654419 745.206726,392.648438 758.703857,383.710846 
	C760.473328,382.539124 762.347778,381.525635 764.112793,380.347809 
	C795.410645,359.463257 827.921509,340.550354 861.413269,323.531219 
	C892.209717,307.881744 923.460632,292.924957 955.355835,279.699554 
	C983.413757,268.065277 1012.376343,258.397430 1041.416626,249.401474 
	C1078.876099,237.797470 1117.388184,230.831497 1156.574829,228.128128 
	C1180.811523,226.456146 1204.867065,227.734879 1228.905151,231.737747 
	C1257.205444,236.450363 1284.164307,245.047119 1310.102173,257.053284 
	C1337.067993,269.535156 1361.660400,285.678131 1383.339844,306.038025 
	C1397.602905,319.433044 1409.840576,334.544281 1419.982910,351.337799 
	C1436.247925,378.268921 1445.557617,407.448730 1446.917358,438.810211 
	C1447.517090,452.645874 1446.442261,466.644836 1445.031616,480.457733 
	C1442.287720,507.324463 1431.288818,530.599365 1412.006714,549.633179 
	C1396.705322,564.737488 1378.121704,574.609436 1357.846191,581.112549 
	C1321.965576,592.620728 1285.137329,595.615173 1247.703857,592.141113 
	C1243.273315,591.729919 1238.825439,591.507019 1233.993896,591.169434 
	C1246.435913,605.089050 1258.876709,618.176819 1270.349121,632.064575 
	C1283.023926,647.407837 1295.501831,663.005432 1306.832520,679.347107 
	C1326.583740,707.833313 1341.864746,738.643188 1352.123779,771.916565 
	C1359.400879,795.517883 1363.653442,819.542725 1364.065674,844.191101 
	C1364.415649,865.113831 1361.642456,885.622559 1356.262695,905.951294 
	C1350.558350,927.507202 1341.942139,947.718994 1330.449585,966.611206 
	C1318.426880,986.375183 1304.481079,1004.853027 1286.081421,1019.253906 
	C1273.563843,1029.051025 1261.067871,1039.208862 1247.331421,1047.049194 
	C1213.352173,1066.443726 1176.497314,1076.847778 1137.237671,1078.184448 
	C1135.817505,1078.232788 1134.412231,1078.718262 1133.000000,1079.000000 
z"/>
<path fill="#00A2E9" opacity="1.000000" stroke="none" 
	d="
M334.000000,1079.000000 
	C326.979034,1079.000000 319.958099,1079.000000 312.212280,1078.666016 
	C303.703247,1077.604004 295.878723,1077.167969 288.141235,1076.101196 
	C228.326370,1067.853027 177.770874,1041.888184 138.927643,995.370239 
	C96.106339,944.088196 78.669441,884.629272 86.310776,818.226440 
	C90.741982,779.719421 104.222862,744.052063 122.664665,710.129944 
	C142.214264,674.170288 167.462296,642.454834 195.010239,612.434814 
	C201.482101,605.382202 208.065598,598.432007 215.106461,590.889771 
	C212.644058,590.998779 211.017380,591.078979 209.389999,591.141418 
	C193.760529,591.741760 178.115433,593.092468 162.504822,592.770996 
	C135.083206,592.206238 108.141266,588.058594 82.415398,577.987488 
	C38.298050,560.716675 10.702376,529.782532 3.580432,482.069733 
	C2.682212,476.052155 1.858325,470.023529 1.000000,464.000000 
	C1.000000,454.645782 1.000000,445.291534 1.349975,435.234009 
	C2.144024,430.608490 2.597236,426.687286 3.030641,422.763916 
	C5.245846,402.710876 11.342002,383.695099 20.199917,365.774323 
	C34.637772,336.564545 55.188141,312.016388 80.752846,291.844482 
	C106.990227,271.141815 135.983063,255.401993 167.696106,244.653076 
	C204.774994,232.085434 242.634613,225.091660 281.929474,228.033524 
	C296.855377,229.150955 311.832977,230.077362 326.640472,232.141708 
	C342.616608,234.368958 358.665039,236.892166 374.245422,240.958694 
	C399.732330,247.610870 425.336945,254.330505 450.030212,263.374451 
	C481.501221,274.900696 512.486511,287.953918 542.982483,301.879181 
	C568.278870,313.430145 593.001709,326.426605 617.180664,340.185150 
	C644.983826,356.006012 671.920776,373.350677 699.177612,390.125092 
	C700.416809,390.887726 701.681702,392.445618 701.931519,393.815979 
	C702.578796,397.366180 702.814575,401.013031 702.950073,404.631195 
	C703.577576,421.391815 704.622864,438.157593 704.563599,454.918152 
	C704.478943,478.849548 703.595215,502.778900 702.982361,526.707336 
	C702.757629,535.483276 702.388062,544.256836 701.977783,553.026428 
	C701.738831,558.135315 701.413147,563.246704 700.907959,568.335327 
	C699.674438,580.760010 698.337219,593.174683 696.997681,605.588623 
	C695.677124,617.826233 694.701599,630.118652 692.855408,642.277771 
	C690.260559,659.368591 687.650146,676.503662 683.881531,693.359314 
	C677.522278,721.802551 670.953369,750.237000 663.159973,778.310791 
	C655.531616,805.789917 645.256470,832.445801 633.156433,858.314575 
	C610.607666,906.521973 582.549072,950.930847 542.557922,986.804565 
	C531.690796,996.552856 520.506653,1006.102783 508.587372,1014.492737 
	C478.973907,1035.337280 447.278412,1052.358154 412.676544,1063.603027 
	C392.382874,1070.197998 371.763367,1075.188965 350.451904,1077.073120 
	C344.954132,1077.559204 339.483246,1078.349609 334.000000,1079.000000 
z"/>
<path fill="#FFFFFF" opacity="1.000000" stroke="none" 
	d="
M334.468658,1079.000000 
	C339.483246,1078.349609 344.954132,1077.559204 350.451904,1077.073120 
	C371.763367,1075.188965 392.382874,1070.197998 412.676544,1063.603027 
	C447.278412,1052.358154 478.973907,1035.337280 508.587372,1014.492737 
	C520.506653,1006.102783 531.690796,996.552856 542.557922,986.804565 
	C582.549072,950.930847 610.607666,906.521973 633.156433,858.314575 
	C645.256470,832.445801 655.531616,805.789917 663.159973,778.310791 
	C670.953369,750.237000 677.522278,721.802551 683.881531,693.359314 
	C687.650146,676.503662 690.260559,659.368591 692.855408,642.277771 
	C694.701599,630.118652 695.677124,617.826233 696.997681,605.588623 
	C698.337219,593.174683 699.674438,580.760010 700.907959,568.335327 
	C701.413147,563.246704 701.738831,558.135315 701.977783,553.026428 
	C702.388062,544.256836 702.757629,535.483276 702.982361,526.707336 
	C703.595215,502.778900 704.478943,478.849548 704.563599,454.918152 
	C704.622864,438.157593 703.577576,421.391815 702.950073,404.631195 
	C702.814575,401.013031 702.578796,397.366180 701.931519,393.815979 
	C701.681702,392.445618 700.416809,390.887726 699.177612,390.125092 
	C671.920776,373.350677 644.983826,356.006012 617.180664,340.185150 
	C593.001709,326.426605 568.278870,313.430145 542.982483,301.879181 
	C512.486511,287.953918 481.501221,274.900696 450.030212,263.374451 
	C425.336945,254.330505 399.732330,247.610870 374.245422,240.958694 
	C358.665039,236.892166 342.616608,234.368958 326.640472,232.141708 
	C311.832977,230.077362 296.855377,229.150955 281.929474,228.033524 
	C242.634613,225.091660 204.774994,232.085434 167.696106,244.653076 
	C135.983063,255.401993 106.990227,271.141815 80.752846,291.844482 
	C55.188141,312.016388 34.637772,336.564545 20.199917,365.774323 
	C11.342002,383.695099 5.245846,402.710876 3.030641,422.763916 
	C2.597236,426.687286 2.144024,430.608490 1.349975,434.765320 
	C1.000000,290.401917 1.000000,145.803802 1.000000,1.000000 
	C163.687500,1.000000 326.375092,1.000000 489.547363,1.227246 
	C490.032013,1.454492 489.939178,1.900555 489.492188,1.931523 
	C474.054657,3.986984 458.895355,5.188521 444.111542,8.220935 
	C419.398926,13.289923 396.152954,22.378683 376.808228,39.196266 
	C353.515137,59.446445 344.008453,84.475014 353.038513,114.868896 
	C359.929657,138.063461 375.162720,155.637772 393.120789,171.004669 
	C413.829620,188.725433 437.038940,202.878860 460.393433,216.712387 
	C545.371521,267.047394 633.566528,311.302643 722.256348,354.597107 
	C724.175781,355.534088 727.446411,355.181427 729.481873,354.189331 
	C810.515137,314.692535 891.151306,274.391602 968.745056,228.398666 
	C995.463013,212.561874 1021.506470,195.476181 1047.018921,177.753204 
	C1066.070190,164.518677 1081.495728,147.382492 1091.508057,126.013618 
	C1099.395508,109.179855 1101.681763,91.606606 1095.758545,73.869667 
	C1088.169678,51.145103 1071.470215,36.160564 1050.976318,25.087580 
	C1022.020142,9.442327 990.396790,4.190790 958.038208,1.653640 
	C958.002197,1.437744 958.000000,1.000000 958.000000,1.000000 
	C1123.628418,1.000000 1289.256958,1.000000 1454.942627,1.000000 
	C1454.942627,360.212280 1454.942627,719.424561 1454.942627,1079.000000 
	C1347.979370,1079.000000 1240.958252,1079.000000 1133.468628,1079.000000 
	C1134.412231,1078.718262 1135.817505,1078.232788 1137.237671,1078.184448 
	C1176.497314,1076.847778 1213.352173,1066.443726 1247.331421,1047.049194 
	C1261.067871,1039.208862 1273.563843,1029.051025 1286.081421,1019.253906 
	C1304.481079,1004.853027 1318.426880,986.375183 1330.449585,966.611206 
	C1341.942139,947.718994 1350.558350,927.507202 1356.262695,905.951294 
	C1361.642456,885.622559 1364.415649,865.113831 1364.065674,844.191101 
	C1363.653442,819.542725 1359.400879,795.517883 1352.123779,771.916565 
	C1341.864746,738.643188 1326.583740,707.833313 1306.832520,679.347107 
	C1295.501831,663.005432 1283.023926,647.407837 1270.349121,632.064575 
	C1258.876709,618.176819 1246.435913,605.089050 1233.993896,591.169434 
	C1238.825439,591.507019 1243.273315,591.729919 1247.703857,592.141113 
	C1285.137329,595.615173 1321.965576,592.620728 1357.846191,581.112549 
	C1378.121704,574.609436 1396.705322,564.737488 1412.006714,549.633179 
	C1431.288818,530.599365 1442.287720,507.324463 1445.031616,480.457733 
	C1446.442261,466.644836 1447.517090,452.645874 1446.917358,438.810211 
	C1445.557617,407.448730 1436.247925,378.268921 1419.982910,351.337799 
	C1409.840576,334.544281 1397.602905,319.433044 1383.339844,306.038025 
	C1361.660400,285.678131 1337.067993,269.535156 1310.102173,257.053284 
	C1284.164307,245.047119 1257.205444,236.450363 1228.905151,231.737747 
	C1204.867065,227.734879 1180.811523,226.456146 1156.574829,228.128128 
	C1117.388184,230.831497 1078.876099,237.797470 1041.416626,249.401474 
	C1012.376343,258.397430 983.413757,268.065277 955.355835,279.699554 
	C923.460632,292.924957 892.209717,307.881744 861.413269,323.531219 
	C827.921509,340.550354 795.410645,359.463257 764.112793,380.347809 
	C762.347778,381.525635 760.473328,382.539124 758.703857,383.710846 
	C745.206726,392.648438 745.181274,392.654419 745.006409,408.585846 
	C744.652222,440.852325 743.952026,473.121613 744.155396,505.384918 
	C744.262512,522.378723 745.947205,539.363953 746.969421,556.350098 
	C747.613831,567.057068 748.122131,577.779602 749.110352,588.456421 
	C750.091553,599.057129 751.590393,609.610046 752.875000,620.182373 
	C754.259338,631.575806 755.388123,643.008789 757.120483,654.349243 
	C759.220581,668.097168 761.467651,681.843567 764.317810,695.450989 
	C768.260071,714.272400 772.024536,733.193054 777.322632,751.652893 
	C784.095520,775.251099 791.967224,798.555115 800.012756,821.761414 
	C809.163879,848.156372 821.302490,873.268494 835.202271,897.473328 
	C846.282104,916.767700 858.357117,935.449707 872.984741,952.321960 
	C880.990356,961.556030 888.674438,971.146301 897.383850,979.677246 
	C918.173950,1000.041382 941.481628,1017.209595 966.486328,1032.119385 
	C990.808899,1046.622437 1016.333069,1058.470703 1043.603027,1066.072876 
	C1058.321533,1070.176270 1073.421631,1073.021484 1088.466675,1075.799805 
	C1096.687134,1077.317749 1105.151611,1077.513184 1113.753052,1078.652588 
	C854.312439,1079.000000 594.624878,1079.000000 334.468658,1079.000000 
z"/>
<path fill="#FFFFFF" opacity="1.000000" stroke="none" 
	d="
M1.000000,464.468658 
	C1.858325,470.023529 2.682212,476.052155 3.580432,482.069733 
	C10.702376,529.782532 38.298050,560.716675 82.415398,577.987488 
	C108.141266,588.058594 135.083206,592.206238 162.504822,592.770996 
	C178.115433,593.092468 193.760529,591.741760 209.389999,591.141418 
	C211.017380,591.078979 212.644058,590.998779 215.106461,590.889771 
	C208.065598,598.432007 201.482101,605.382202 195.010239,612.434814 
	C167.462296,642.454834 142.214264,674.170288 122.664665,710.129944 
	C104.222862,744.052063 90.741982,779.719421 86.310776,818.226440 
	C78.669441,884.629272 96.106339,944.088196 138.927643,995.370239 
	C177.770874,1041.888184 228.326370,1067.853027 288.141235,1076.101196 
	C295.878723,1077.167969 303.703247,1077.604004 311.743713,1078.666016 
	C208.382309,1079.000000 104.764618,1079.000000 1.000000,1079.000000 
	C1.000000,874.312439 1.000000,669.624878 1.000000,464.468658 
z"/>
<path fill="#FFFFFE" opacity="1.000000" stroke="none" 
	d="
M521.000000,1.000000 
	C656.356628,1.000000 791.713318,1.000000 927.534607,1.218992 
	C927.999268,1.437985 927.926819,1.869931 927.476807,1.902513 
	C912.967773,3.386998 898.792603,4.131081 884.870239,6.415657 
	C830.134888,15.397334 778.352905,33.409626 728.947754,58.496876 
	C727.114319,59.427860 724.115112,59.454357 722.207642,58.631252 
	C704.665894,51.061855 687.516357,42.517246 669.737122,35.577034 
	C621.916992,16.910154 572.599976,4.400773 521.033081,1.659436 
	C520.994568,1.441873 521.000000,1.000000 521.000000,1.000000 
z"/>
<path fill="#FEF299" opacity="1.000000" stroke="none" 
	d="
M520.531372,1.000000 
	C521.000000,1.000000 520.994568,1.441873 520.566345,1.747768 
	C510.071808,2.002627 500.005493,1.951591 489.939178,1.900556 
	C489.939178,1.900555 490.032013,1.454492 490.015991,1.227246 
	C500.020905,1.000000 510.041779,1.000000 520.531372,1.000000 
z"/>
<path fill="#FEF39B" opacity="1.000000" stroke="none" 
	d="
M927.926819,1.869931 
	C927.926819,1.869931 927.999268,1.437985 927.999634,1.218992 
	C937.687561,1.000000 947.375122,1.000000 957.531372,1.000000 
	C958.000000,1.000000 958.002197,1.437744 957.571106,1.740772 
	C947.402283,1.985843 937.664551,1.927887 927.926819,1.869931 
z"/>
<path fill="#FFE100" opacity="1.000000" stroke="none" 
	d="
M927.476807,1.902513 
	C937.664551,1.927887 947.402283,1.985843 957.607056,1.956667 
	C990.396790,4.190790 1022.020142,9.442327 1050.976318,25.087580 
	C1071.470215,36.160564 1088.169678,51.145103 1095.758545,73.869667 
	C1101.681763,91.606606 1099.395508,109.179855 1091.508057,126.013618 
	C1081.495728,147.382492 1066.070190,164.518677 1047.018921,177.753204 
	C1021.506470,195.476181 995.463013,212.561874 968.745056,228.398666 
	C891.151306,274.391602 810.515137,314.692535 729.481873,354.189331 
	C727.446411,355.181427 724.175781,355.534088 722.256348,354.597107 
	C633.566528,311.302643 545.371521,267.047394 460.393433,216.712387 
	C437.038940,202.878860 413.829620,188.725433 393.120789,171.004669 
	C375.162720,155.637772 359.929657,138.063461 353.038513,114.868896 
	C344.008453,84.475014 353.515137,59.446445 376.808228,39.196266 
	C396.152954,22.378683 419.398926,13.289923 444.111542,8.220935 
	C458.895355,5.188521 474.054657,3.986984 489.492188,1.931523 
	C500.005493,1.951591 510.071808,2.002627 520.604858,1.965331 
	C572.599976,4.400773 621.916992,16.910154 669.737122,35.577034 
	C687.516357,42.517246 704.665894,51.061855 722.207642,58.631252 
	C724.115112,59.454357 727.114319,59.427860 728.947754,58.496876 
	C778.352905,33.409626 830.134888,15.397334 884.870239,6.415657 
	C898.792603,4.131081 912.967773,3.386998 927.476807,1.902513 
z"/>
</svg>